<svg width="129" height="34" xmlns="http://www.w3.org/2000/svg" xmlns:xlink="http://www.w3.org/1999/xlink"><defs><linearGradient x1="85.687%" y1="0%" x2="14.616%" y2="99.575%" id="b"><stop stop-color="#F03" offset="0%"/><stop stop-color="#FF5482" offset="100%"/></linearGradient><linearGradient x1="98.776%" y1="0%" x2="1.639%" y2="99.575%" id="d"><stop stop-color="#F03" offset="0%"/><stop stop-color="#FF5482" offset="100%"/></linearGradient><path id="a" d="M0 .332h27.743v32.839H0z"/><path id="e" d="M.203.075h10.85v13.263H.203z"/></defs><g fill="none" fill-rule="evenodd"><g transform="translate(.03)"><mask id="c" fill="#fff"><use xlink:href="#a"/></mask><path d="M13.864 9.363c-1.469.004-2.663-1.2-2.668-2.69-.004-1.49 1.183-2.7 2.652-2.705 1.47-.005 2.664 1.2 2.668 2.69v.007c0 1.487-1.186 2.693-2.652 2.698zm13.33-1.165a2.234 2.234 0 00-.77-1.658L19.638.848a2.173 2.173 0 00-1.404-.516H9.431c-.513 0-1.01.183-1.404.516L1.312 6.54a2.232 2.232 0 00-.77 1.65l-.54 22.674c-.047 1.226.895 2.258 2.103 2.305l.071.002h23.36c1.21.01 2.198-.977 2.207-2.204l-.001-.103-.548-22.666z" fill="url(#b)" mask="url(#c)"/></g><path d="M62.452 13.075c1.476 0 2.674 1.212 2.674 2.707 0 1.496-1.198 2.708-2.674 2.708-1.477 0-2.674-1.212-2.674-2.708 0-1.495 1.197-2.707 2.674-2.707" fill="url(#d)" transform="translate(36.233 4.976)"/><path d="M45.65 13.844a8.376 8.376 0 00-3.783-1.013c-.852 0-1.403.283-1.403.887 0 .605.28.613 1.055.785l2.03.557c2.681.738 3.51 2.104 3.51 3.925 0 2.566-2.2 4.285-5.665 4.285a11.813 11.813 0 01-5.161-1.139l.829-3.296a9.214 9.214 0 004.061 1.217c1 0 1.705-.204 1.705-.785 0-.455-.473-.785-1.302-.965l-1.852-.51c-2.38-.636-3.356-1.805-3.356-3.807 0-2.637 2.007-4.442 5.665-4.442 1.634.006 3.251.336 4.76.973l-1.094 3.328zm7.78-8.829v6.278a5.393 5.393 0 014.163-1.765c3.557 0 5.014 2.613 5.014 5.862v7.636h-4.24v-6.93c0-1.703-.728-2.637-2.325-2.637a2.92 2.92 0 00-2.627 1.649v7.918h-4.193V4.976l4.209.039zm18.113 14.542c1.63.063 3.001-1.224 3.063-2.874a2.85 2.85 0 00-.002-.265c0-1.682-1.346-3.045-3.007-3.045-1.66 0-3.007 1.363-3.007 3.045-.085 1.645 1.162 3.048 2.786 3.135.056.003.111.004.167.004m0-10.155c3.755-.162 6.928 2.79 7.088 6.591.006.158.008.315.004.472 0 3.98-2.984 6.953-7.092 6.953-3.735.119-6.857-2.852-6.974-6.634a7.382 7.382 0 01-.001-.366c-.074-3.8 2.908-6.942 6.661-7.017.105-.002.21-.002.314 0m15.958 3.831a3.756 3.756 0 00-2.504.965v4.442a3.974 3.974 0 002.504.942c1.573.08 2.912-1.147 2.991-2.74a2.932 2.932 0 00-.008-.4c-.007-1.961-1.162-3.21-2.991-3.21h.008zm1.201 10.045a5.182 5.182 0 01-3.705-1.467v5.988H80.79V9.747h4.208v1.342a4.799 4.799 0 013.705-1.57c3.581 0 6.037 2.865 6.037 6.899s-2.456 6.86-6.037 6.86zm20.104-3.013a3.654 3.654 0 002.132-.785v-2.056a5.11 5.11 0 00-1.124-.126c-1.48 0-2.658.51-2.658 1.57 0 1.059.682 1.397 1.681 1.397h-.03zm-4.65-9.819c1.669-.583 3.42-.89 5.185-.91 4.31 0 5.735 2.307 5.735 5.431v8.06h-4.107v-1.24a5.245 5.245 0 01-3.736 1.5c-2.682 0-4.162-1.57-4.162-3.925 0-2.99 2.38-4.615 5.96-4.615a11.25 11.25 0 011.93.15c0-1.342-.674-1.853-2.03-1.853a11.965 11.965 0 00-4.062.824l-.713-3.422z" fill="#24282A"/><g transform="translate(117.067 9.68)"><mask id="f" fill="#fff"><use xlink:href="#e"/></mask><path fill="#24282A" mask="url(#f)" d="M5.791 3.403H.203V.075h10.85v2.943l-5.51 7h5.51v3.32H.203v-2.935z"/></g></g></svg>